#!OML:ASF G:\JayActor3\Patient Classification 1\Patient 1\Session 6\male.ASF
:FULLY-SPECIFIED
:DEGREES
1153
root -32.1738 16.8966 4.52297 539.413 -24.2557 -538.522
lowerback 10.3309 -2.59497 -1.55701
upperback 0.97211 -3.87026 -2.33367
thorax -4.83416 -1.95372 -0.998231
lowerneck 9.03591 -0.73544 -1.12733
upperneck -7.30602 -0.714274 5.5319
head -4.01652 -0.625207 2.11771
rclavicle -2.50469e-014 1.66979e-014
rhumerus -38.4343 3.34769 -82.8638
rradius 33.1506
rwrist 1.18214
rhand -23.761 -10.4863
rfingers 7.12502
rthumb 2.7082 -40.4489
lclavicle -2.50469e-014 1.66979e-014
lhumerus -20.641 15.8031 67.9325
lradius 23.2447
lwrist 21.5268
lhand -22.5656 7.67521
lfingers 7.12502
lthumb 3.86262 37.6199
rfemur -29.7711 -9.62982 20.459
rtibia 89.0688
rfoot -2.43223 6.24278
rtoes -17.473
lfemur -4.584 9.20748 -16.2686
ltibia 16.9366
lfoot -8.20079 -2.99896
ltoes 1.55005
1154
root -32.21 16.9059 4.43473 539.412 -24.0834 -538.593
lowerback 10.4775 -2.56969 -1.59495
upperback 0.972549 -3.86183 -2.48724
thorax -4.92411 -1.95289 -1.1307
lowerneck 8.89743 -0.188535 -0.79944
upperneck -7.294 0.0340216 5.20584
head -4.00937 -0.247803 1.89733
rclavicle 3.77691e-015 -4.13472e-014
rhumerus -38.9553 2.55275 -82.2676
rradius 33.4536
rwrist 0.870338
rhand -23.9297 -10.5228
rfingers 7.12502
rthumb 2.54522 -40.4874
lclavicle 3.77691e-015 -4.13472e-014
lhumerus -18.8855 13.5993 68.5178
lradius 24.6248
lwrist 22.5985
lhand -22.5895 7.73651
lfingers 7.12502
lthumb 3.83947 37.6817
rfemur -31.4153 -10.151 20.6206
rtibia 89.833
rfoot -3.83049 4.80973
rtoes -17.9869
lfemur -3.88436 9.01489 -16.2973
ltibia 16.4432
lfoot -8.28012 -2.61644
ltoes 1.44805
1155
root -32.244 16.9124 4.34646 539.463 -23.9218 -538.724
lowerback 10.6802 -2.56148 -1.73725
upperback 0.922506 -3.88928 -2.61231
thorax -5.08996 -1.96574 -1.16626
lowerneck 8.72658 0.34653 -0.538605
upperneck -7.24595 0.755598 4.86427
head -3.97689 0.120877 1.68591
rclavicle 4.17448e-014 9.54166e-015
rhumerus -39.5097 1.85689 -81.6595
rradius 33.6399
rwrist 0.867402
rhand -24.075 -10.4388
rfingers 7.12502
rthumb 2.40496 -40.405
lclavicle 4.17448e-014 9.54166e-015
lhumerus -17.4611 11.3523 68.99
lradius 26.3619
lwrist 23.7816
lhand -22.5134 7.86048
lfingers 7.12502
lthumb 3.91299 37.8043
rfemur -33.0436 -10.5887 20.7836
rtibia 90.3784
rfoot -5.1588 3.27632
rtoes -18.3214
lfemur -3.25063 8.85712 -16.3909
ltibia 16.0016
lfoot -8.3826 -2.27886
ltoes 1.41141
1156
root -32.2769 16.9156 4.25819 539.549 -23.7564 -538.897
lowerback 10.9149 -2.57362 -1.95234
upperback 0.844979 -3.95346 -2.71156
thorax -5.29646 -1.99354 -1.12656
lowerneck 8.52986 0.874193 -0.354835
upperneck -7.18302 1.45865 4.54601
head -3.92994 0.482373 1.49917
rclavicle -6.79844e-014 3.18055e-014
rhumerus -40.0617 1.30402 -81.0754
rradius 33.7266
rwrist 1.11185
rhand -24.1997 -10.2699
rfingers 7.12502
rthumb 2.28448 -40.2374
lclavicle -6.79844e-014 3.18055e-014
lhumerus -16.312 9.21238 69.3355
lradius 28.4094
lwrist 24.9691
lhand -22.3283 8.01851
lfingers 7.12502
lthumb 4.09174 37.959
rfemur -34.6395 -10.9304 20.9531
rtibia 90.7031
rfoot -6.39513 1.68946
rtoes -18.5193
lfemur -2.67221 8.73585 -16.5345
ltibia 15.6195
lfoot -8.53296 -1.95478
ltoes 1.31759
1157
root -32.3091 16.9154 4.17044 539.662 -23.588 -539.086
lowerback 11.158 -2.58541 -2.17633
upperback 0.760783 -4.0212 -2.81285
thorax -5.51435 -2.02237 -1.08272
lowerneck 8.30497 1.3655 -0.159116
upperneck -7.12811 2.11389 4.24194
head -3.87516 0.819033 1.32029
rclavicle -8.95525e-014 -2.8625e-014
rhumerus -40.5983 0.778203 -80.5277
rradius 33.7281
rwrist 1.56873
rhand -24.3201 -10.0767
rfingers 7.12502
rthumb 2.16819 -40.0455
lclavicle -8.95525e-014 -2.8625e-014
lhumerus -15.337 7.13987 69.5666
lradius 30.7189
lwrist 26.1303
lhand -22.0155 8.21989
lfingers 7.12502
lthumb 4.39379 38.1543
rfemur -36.2017 -11.1849 21.1381
rtibia 90.8078
rfoot -7.52241 0.0983786
rtoes -18.6591
lfemur -2.15601 8.64793 -16.7082
ltibia 15.3031
lfoot -8.74073 -1.62935
ltoes 1.19351
1158
root -32.3413 16.9114 4.08319 539.796 -23.4018 -539.293
lowerback 11.4035 -2.58561 -2.4076
upperback 0.681334 -4.07764 -2.91887
thorax -5.72849 -2.04542 -1.04136
lowerneck 8.07313 1.81612 0.0445132
upperneck -7.10742 2.71733 3.97425
head -3.82709 1.12698 1.15798
rclavicle 4.96962e-016 -6.36111e-015
rhumerus -41.138 0.402668 -80.0789
rradius 33.7162
rwrist 2.0354
rhand -24.4474 -9.9192
rfingers 7.12502
rthumb 2.04523 -39.8891
lclavicle 4.96962e-016 -6.36111e-015
lhumerus -14.4834 5.1732 69.7032
lradius 33.2374
lwrist 27.2192
lhand -21.6232 8.406
lfingers 7.12502
lthumb 4.77258 38.3322
rfemur -37.7172 -11.3398 21.3262
rtibia 90.6966
rfoot -8.54473 -1.45744
rtoes -18.8382
lfemur -1.69445 8.58396 -16.915
ltibia 15.0625
lfoot -9.02959 -1.25996
ltoes 1.00071
1159
root -32.3734 16.9033 3.99662 539.946 -23.2021 -539.507
lowerback 11.6482 -2.5721 -2.63
upperback 0.613078 -4.11811 -3.03385
thorax -5.93181 -2.06119 -1.01718
lowerneck 7.84189 2.22327 0.283463
upperneck -7.13493 3.26785 3.73737
head -3.79207 1.40457 1.00513
rclavicle 9.83984e-015 -1.59028e-014
rhumerus -41.6699 0.155505 -79.7365
rradius 33.7008
rwrist 2.46053
rhand -24.5549 -9.78134
rfingers 7.12502
rthumb 1.94141 -39.7523
lclavicle 9.83984e-015 -1.59028e-014
lhumerus -13.7079 3.3261 69.7603
lradius 35.9131
lwrist 28.1852
lhand -21.1989 8.53061
lfingers 7.12502
lthumb 5.1823 38.4472
rfemur -39.1781 -11.4119 21.5128
rtibia 90.3738
rfoot -9.45743 -2.9183
rtoes -19.0485
lfemur -1.28465 8.56862 -17.1421
ltibia 14.8942
lfoot -9.38819 -0.877971
ltoes 0.78013
1160
root -32.4053 16.8909 3.91046 540.107 -22.9934 -539.74
lowerback 11.8925 -2.52492 -2.8375
upperback 0.568616 -4.11849 -3.18494
thorax -6.11371 -2.05967 -1.04646
lowerneck 7.58093 2.57723 0.582651
upperneck -7.19082 3.75486 3.5613
head -3.75757 1.64449 0.86781
rclavicle -4.33351e-014 -3.49861e-014
rhumerus -42.1957 -0.0676656 -79.5002
rradius 33.69
rwrist 2.8086
rhand -24.6251 -9.66244
rfingers 7.12502
rthumb 1.87369 -39.634
lclavicle -4.33351e-014 -3.49861e-014
lhumerus -12.94 1.51239 69.7423
lradius 38.6954
lwrist 29.0629
lhand -20.8248 8.55045
lfingers 7.12502
lthumb 5.54349 38.4579
rfemur -40.5641 -11.4104 21.6741
rtibia 89.8432
rfoot -10.3027 -4.24741
rtoes -19.2656
lfemur -0.91048 8.59087 -17.3943
ltibia 14.7861
lfoot -9.82033 -0.476731
ltoes 0.560316
1161
root -32.4369 16.8745 3.82504 540.287 -22.8063 -540.005
lowerback 12.15 -2.4724 -3.06057
upperback 0.540266 -4.11906 -3.34937
thorax -6.28624 -2.05892 -1.0812
lowerneck 7.31848 2.90366 0.890857
upperneck -7.29599 4.20791 3.43845
head -3.73868 1.86269 0.750242
rclavicle 1.2921e-015 8.42847e-014
rhumerus -42.6968 -0.189486 -79.3554
rradius 33.6897
rwrist 3.05045
rhand -24.6255 -9.54468
rfingers 7.12502
rthumb 1.87329 -39.5162
lclavicle 1.2921e-015 8.42847e-014
lhumerus -12.1989 -0.209884 69.6639
lradius 41.5505
lwrist 29.8748
lhand -20.516 8.48955
lfingers 7.12502
lthumb 5.84168 38.389
rfemur -41.8687 -11.3781 21.7854
rtibia 89.1083
rfoot -11.0871 -5.41976
rtoes -19.5227
lfemur -0.571147 8.65219 -17.6804
ltibia 14.7251
lfoot -10.2985 -0.11713
ltoes 0.408179
1162
root -32.4684 16.8538 3.74034 540.48 -22.658 -540.305
lowerback 12.4308 -2.4368 -3.32197
upperback 0.526798 -4.1507 -3.50336
thorax -6.45287 -2.07242 -1.07778
lowerneck 7.05341 3.22685 1.17286
upperneck -7.44164 4.65424 3.33971
head -3.73299 2.07554 0.646977
rclavicle -1.35174e-014 -3.65764e-014
rhumerus -43.1493 -0.151835 -79.2868
rradius 33.7047
rwrist 3.18556
rhand -24.5426 -9.43301
rfingers 7.12502
rthumb 1.95337 -39.4038
lclavicle -1.35174e-014 -3.65764e-014
lhumerus -11.4948 -1.76534 69.5488
lradius 44.4381
lwrist 30.6314
lhand -20.3246 8.34116
lfingers 7.12502
lthumb 6.02645 38.2355
rfemur -43.0743 -11.3456 21.8309
rtibia 88.1703
rfoot -11.8531 -6.39266
rtoes -19.678
lfemur -0.256305 8.73449 -17.9985
ltibia 14.701
lfoot -10.8146 0.186323
ltoes 0.223874
1163
root -32.4996 16.8294 3.65643 540.684 -22.5614 -540.644
lowerback 12.7376 -2.42626 -3.6254
upperback 0.530097 -4.22481 -3.64283
thorax -6.61222 -2.10537 -1.02734
lowerneck 6.80805 3.55522 1.40533
upperneck -7.64352 5.10405 3.25982
head -3.75152 2.28845 0.558928
rclavicle 2.26615e-014 -7.95139e-015
rhumerus -43.5433 0.0265815 -79.2751
rradius 33.7419
rwrist 3.23879
rhand -24.3883 -9.34569
rfingers 7.12502
rthumb 2.10233 -39.3151
lclavicle 2.26615e-014 -7.95139e-015
lhumerus -10.8251 -3.17968 69.3988
lradius 47.3337
lwrist 31.3829
lhand -20.1577 8.21433
lfingers 7.12502
lthumb 6.18757 38.104
rfemur -44.1676 -11.3231 21.7998
rtibia 87.0303
rfoot -12.6095 -7.1787
rtoes -19.7627
lfemur 0.0360252 8.84379 -18.3451
ltibia 14.7103
lfoot -11.3448 0.406964
ltoes 0.0100396
1164
root -32.5298 16.8013 3.57323 540.894 -22.5131 -541.013
lowerback 13.0665 -2.43124 -3.96918
upperback 0.558322 -4.32838 -3.76657
thorax -6.75284 -2.15169 -0.931726
lowerneck 6.59392 3.87372 1.61246
upperneck -7.92462 5.53911 3.17739
head -3.80337 2.49166 0.474861
rclavicle -9.08446e-014 -4.29375e-014
rhumerus -43.8696 0.276129 -79.2919
rradius 33.8088
rwrist 3.25463
rhand -24.1599 -9.27921
rfingers 7.12502
rthumb 2.32295 -39.2463
lclavicle -9.08446e-014 -4.29375e-014
lhumerus -10.1595 -4.47399 69.2304
lradius 50.2029
lwrist 32.1237
lhand -20.0446 8.11644
lfingers 7.12502
lthumb 6.29681 38.0029
rfemur -45.1381 -11.3055 21.6985
rtibia 85.6872
rfoot -13.3306 -7.78946
rtoes -19.8273
lfemur 0.303175 8.96976 -18.7048
ltibia 14.7589
lfoot -11.8797 0.545325
ltoes -0.219834
1165
root -32.5591 16.7699 3.49072 541.092 -22.5145 -541.404
lowerback 13.4127 -2.4353 -4.319
upperback 0.630066 -4.43637 -3.8931
thorax -6.85568 -2.2019 -0.834497
lowerneck 6.4062 4.15857 1.8284
upperneck -8.29132 5.92976 3.08665
head -3.88869 2.66894 0.387976
rclavicle -4.33351e-014 -4.45278e-014
rhumerus -44.1265 0.476931 -79.3117
rradius 33.9015
rwrist 3.28705
rhand -23.9058 -9.21702
rfingers 7.12502
rthumb 2.56834 -39.1813
lclavicle -4.33351e-014 -4.45278e-014
lhumerus -9.45396 -5.715 69.038
lradius 53.0206
lwrist 32.822
lhand -19.9499 8.05039
lfingers 7.12502
lthumb 6.38819 37.9341
rfemur -45.9576 -11.2908 21.5232
rtibia 84.1409
rfoot -13.9853 -8.2519
rtoes -19.8923
lfemur 0.558487 9.08439 -19.0694
ltibia 14.8534
lfoot -12.4106 0.620326
ltoes -0.498213
1166
root -32.5874 16.7359 3.4086 541.273 -22.5639 -541.808
lowerback 13.7721 -2.44197 -4.67667
upperback 0.746056 -4.55118 -4.00677
thorax -6.91567 -2.2569 -0.717865
lowerneck 6.26549 4.41208 2.00974
upperneck -8.75472 6.27695 2.99489
head -4.01795 2.8211 0.306928
rclavicle 3.16068e-014 -3.02153e-014
rhumerus -44.306 0.634898 -79.3159
rradius 34.0235
rwrist 3.33231
rhand -23.6752 -9.17467
rfingers 7.12502
rthumb 2.79106 -39.1361
lclavicle 3.16068e-014 -3.02153e-014
lhumerus -8.7234 -6.88739 68.8408
lradius 55.7715
lwrist 33.4395
lhand -19.7982 8.01276
lfingers 7.12502
lthumb 6.53465 37.8919
rfemur -46.6103 -11.268 21.2787
rtibia 82.3911
rfoot -14.5601 -8.60576
rtoes -19.9153
lfemur 0.801653 9.16839 -19.4297
ltibia 14.9941
lfoot -12.9291 0.645263
ltoes -0.805291
